<svg width="172" height="172" xmlns="http://www.w3.org/2000/svg" xmlns:xlink="http://www.w3.org/1999/xlink" overflow="hidden"><defs><clipPath id="clip0"><rect x="475" y="247" width="172" height="172"/></clipPath></defs><g clip-path="url(#clip0)" transform="translate(-475 -247)"><path d="M597.857 345.286 627.132 345.286C625.98 346.534 625.212 347.205 625.02 347.397L565.223 404.987C564.072 406.138 562.536 406.714 561 406.714 559.464 406.714 557.929 406.138 556.777 404.987L496.884 347.205C496.692 347.109 495.924 346.438 494.869 345.286L530.286 345.286C533.069 345.286 535.565 343.366 536.237 340.678L542.956 313.707 561.192 377.728C561.96 380.319 564.36 382.143 567.143 382.143L567.143 382.143C569.831 382.143 572.23 380.319 572.998 377.728L587.011 331.176 592.386 341.926C593.442 343.942 595.554 345.286 597.857 345.286ZM647 304.205C647 315.243 642.201 325.321 637.114 333L601.696 333 591.042 311.788C589.987 309.58 587.491 308.237 585.091 308.429 582.5 308.716 580.388 310.348 579.716 312.844L567.335 354.116 548.522 288.272C547.755 285.681 545.355 283.857 542.475 283.857 539.692 283.857 537.292 285.777 536.62 288.464L525.487 333 484.886 333C479.799 325.321 475 315.243 475 304.205 475 276.082 492.181 259.286 520.88 259.286 537.676 259.286 553.417 272.531 561 280.018 568.583 272.531 584.324 259.286 601.12 259.286 629.819 259.286 647 276.082 647 304.205Z" fill="#FF0000"/></g></svg>